<?xml version="1.0" encoding="UTF-8" standalone="no"?>
<!DOCTYPE svg PUBLIC "-//W3C//DTD SVG 1.1//EN"
 "http://www.w3.org/Graphics/SVG/1.1/DTD/svg11.dtd">
<!-- Generated by graphviz version 2.47.0 (20210316.0004)
 -->
<!-- Title: dependencies Pages: 1 -->
<svg width="3262pt" height="284pt"
 viewBox="0.00 0.00 3262.00 284.00" xmlns="http://www.w3.org/2000/svg" xmlns:xlink="http://www.w3.org/1999/xlink">
<g id="graph0" class="graph" transform="scale(1 1) rotate(0) translate(4 280)">
<title>dependencies</title>
<polygon fill="white" stroke="transparent" points="-4,4 -4,-280 3258,-280 3258,4 -4,4"/>
<text text-anchor="start" x="1606.01" y="-42.4" font-family="sans-serif" font-weight="bold" font-size="14.00">Legend</text>
<polygon fill="#ffffb3" stroke="transparent" points="1393,-10 1393,-30 1413,-30 1413,-10 1393,-10"/>
<text text-anchor="start" x="1416.63" y="-15.4" font-family="sans-serif" font-size="14.00"> &#160;Declarations</text>
<polygon fill="#8dd3c7" stroke="transparent" points="1506,-10 1506,-30 1526,-30 1526,-10 1506,-10"/>
<text text-anchor="start" x="1529.73" y="-15.4" font-family="sans-serif" font-size="14.00"> &#160;Module</text>
<polygon fill="#80b1d3" stroke="transparent" points="1592,-10 1592,-30 1612,-30 1612,-10 1592,-10"/>
<text text-anchor="start" x="1615.78" y="-15.4" font-family="sans-serif" font-size="14.00"> &#160;Bootstrap</text>
<polygon fill="#fdb462" stroke="transparent" points="1689,-10 1689,-30 1709,-30 1709,-10 1689,-10"/>
<text text-anchor="start" x="1712.67" y="-15.4" font-family="sans-serif" font-size="14.00"> &#160;Providers</text>
<polygon fill="#fb8072" stroke="transparent" points="1785,-10 1785,-30 1805,-30 1805,-10 1785,-10"/>
<text text-anchor="start" x="1808.73" y="-15.4" font-family="sans-serif" font-size="14.00"> &#160;Exports</text>
<g id="clust1" class="cluster">
<title>cluster_AppModule</title>
<polygon fill="none" stroke="black" stroke-dasharray="1,5" points="8,-70 8,-268 3246,-268 3246,-70 8,-70"/>
</g>
<g id="clust22" class="cluster">
<title>cluster_AppModule_imports</title>
<polygon fill="none" stroke="black" points="3094,-78 3094,-130 3238,-130 3238,-78 3094,-78"/>
</g>
<g id="clust2" class="cluster">
<title>cluster_AppModule_declarations</title>
<polygon fill="none" stroke="black" points="16,-78 16,-130 3086,-130 3086,-78 16,-78"/>
</g>
<g id="clust24" class="cluster">
<title>cluster_AppModule_bootstrap</title>
<polygon fill="none" stroke="black" points="1629,-208 1629,-260 1753,-260 1753,-208 1629,-208"/>
</g>
<!-- AlertasComponent -->
<g id="node1" class="node">
<title>AlertasComponent</title>
<polygon fill="#ffffb3" stroke="black" points="3077.75,-122 2956.25,-122 2956.25,-86 3077.75,-86 3077.75,-122"/>
<text text-anchor="middle" x="3017" y="-99.8" font-family="Times,serif" font-size="14.00">AlertasComponent</text>
</g>
<!-- AppModule -->
<g id="node20" class="node">
<title>AppModule</title>
<polygon fill="#8dd3c7" stroke="black" points="1732.66,-187 1729.66,-191 1708.66,-191 1705.66,-187 1649.34,-187 1649.34,-151 1732.66,-151 1732.66,-187"/>
<text text-anchor="middle" x="1691" y="-164.8" font-family="Times,serif" font-size="14.00">AppModule</text>
</g>
<!-- AlertasComponent&#45;&gt;AppModule -->
<g id="edge1" class="edge">
<title>AlertasComponent&#45;&gt;AppModule</title>
<path fill="none" stroke="black" d="M3017,-122.01C3017,-144.49 3017,-180 3017,-180 3017,-180 1742.87,-180 1742.87,-180"/>
<polygon fill="black" stroke="black" points="1742.87,-176.5 1732.87,-180 1742.87,-183.5 1742.87,-176.5"/>
</g>
<!-- AppComponent -->
<g id="node2" class="node">
<title>AppComponent</title>
<polygon fill="#ffffb3" stroke="black" points="2937.94,-122 2832.06,-122 2832.06,-86 2937.94,-86 2937.94,-122"/>
<text text-anchor="middle" x="2885" y="-99.8" font-family="Times,serif" font-size="14.00">AppComponent</text>
</g>
<!-- AppComponent&#45;&gt;AppModule -->
<g id="edge2" class="edge">
<title>AppComponent&#45;&gt;AppModule</title>
<path fill="none" stroke="black" d="M2885,-122.04C2885,-143.66 2885,-177 2885,-177 2885,-177 1742.79,-177 1742.79,-177"/>
<polygon fill="black" stroke="black" points="1742.8,-173.5 1732.79,-177 1742.79,-180.5 1742.8,-173.5"/>
</g>
<!-- CadastrarComponent -->
<g id="node3" class="node">
<title>CadastrarComponent</title>
<polygon fill="#ffffb3" stroke="black" points="2814.47,-122 2679.53,-122 2679.53,-86 2814.47,-86 2814.47,-122"/>
<text text-anchor="middle" x="2747" y="-99.8" font-family="Times,serif" font-size="14.00">CadastrarComponent</text>
</g>
<!-- CadastrarComponent&#45;&gt;AppModule -->
<g id="edge3" class="edge">
<title>CadastrarComponent&#45;&gt;AppModule</title>
<path fill="none" stroke="black" d="M2747,-122.13C2747,-142.57 2747,-173 2747,-173 2747,-173 1742.72,-173 1742.72,-173"/>
<polygon fill="black" stroke="black" points="1742.72,-169.5 1732.72,-173 1742.72,-176.5 1742.72,-169.5"/>
</g>
<!-- CarrinhoComponent -->
<g id="node4" class="node">
<title>CarrinhoComponent</title>
<polygon fill="#ffffb3" stroke="black" points="2661.6,-122 2530.4,-122 2530.4,-86 2661.6,-86 2661.6,-122"/>
<text text-anchor="middle" x="2596" y="-99.8" font-family="Times,serif" font-size="14.00">CarrinhoComponent</text>
</g>
<!-- CarrinhoComponent&#45;&gt;AppModule -->
<g id="edge4" class="edge">
<title>CarrinhoComponent&#45;&gt;AppModule</title>
<path fill="none" stroke="black" d="M2596,-122.11C2596,-141.34 2596,-169 2596,-169 2596,-169 1742.83,-169 1742.83,-169"/>
<polygon fill="black" stroke="black" points="1742.84,-165.5 1732.83,-169 1742.83,-172.5 1742.84,-165.5"/>
</g>
<!-- CategoriaComponent -->
<g id="node5" class="node">
<title>CategoriaComponent</title>
<polygon fill="#ffffb3" stroke="black" points="2512.75,-122 2377.25,-122 2377.25,-86 2512.75,-86 2512.75,-122"/>
<text text-anchor="middle" x="2445" y="-99.8" font-family="Times,serif" font-size="14.00">CategoriaComponent</text>
</g>
<!-- CategoriaComponent&#45;&gt;AppModule -->
<g id="edge5" class="edge">
<title>CategoriaComponent&#45;&gt;AppModule</title>
<path fill="none" stroke="black" d="M2445,-122.27C2445,-140.56 2445,-166 2445,-166 2445,-166 1742.88,-166 1742.88,-166"/>
<polygon fill="black" stroke="black" points="1742.88,-162.5 1732.88,-166 1742.88,-169.5 1742.88,-162.5"/>
</g>
<!-- CategoriaDeleteComponent -->
<g id="node6" class="node">
<title>CategoriaDeleteComponent</title>
<polygon fill="#ffffb3" stroke="black" points="2359.29,-122 2186.71,-122 2186.71,-86 2359.29,-86 2359.29,-122"/>
<text text-anchor="middle" x="2273" y="-99.8" font-family="Times,serif" font-size="14.00">CategoriaDeleteComponent</text>
</g>
<!-- CategoriaDeleteComponent&#45;&gt;AppModule -->
<g id="edge6" class="edge">
<title>CategoriaDeleteComponent&#45;&gt;AppModule</title>
<path fill="none" stroke="black" d="M2273,-122.03C2273,-139.06 2273,-162 2273,-162 2273,-162 1742.86,-162 1742.86,-162"/>
<polygon fill="black" stroke="black" points="1742.86,-158.5 1732.86,-162 1742.86,-165.5 1742.86,-158.5"/>
</g>
<!-- CategoriaEditComponent -->
<g id="node7" class="node">
<title>CategoriaEditComponent</title>
<polygon fill="#ffffb3" stroke="black" points="2168.59,-122 2009.41,-122 2009.41,-86 2168.59,-86 2168.59,-122"/>
<text text-anchor="middle" x="2089" y="-99.8" font-family="Times,serif" font-size="14.00">CategoriaEditComponent</text>
</g>
<!-- CategoriaEditComponent&#45;&gt;AppModule -->
<g id="edge7" class="edge">
<title>CategoriaEditComponent&#45;&gt;AppModule</title>
<path fill="none" stroke="black" d="M2089,-122.01C2089,-138.05 2089,-159 2089,-159 2089,-159 1742.84,-159 1742.84,-159"/>
<polygon fill="black" stroke="black" points="1742.84,-155.5 1732.84,-159 1742.84,-162.5 1742.84,-155.5"/>
</g>
<!-- DoarMaterialComponent -->
<g id="node8" class="node">
<title>DoarMaterialComponent</title>
<polygon fill="#ffffb3" stroke="black" points="1991.24,-122 1834.76,-122 1834.76,-86 1991.24,-86 1991.24,-122"/>
<text text-anchor="middle" x="1913" y="-99.8" font-family="Times,serif" font-size="14.00">DoarMaterialComponent</text>
</g>
<!-- DoarMaterialComponent&#45;&gt;AppModule -->
<g id="edge8" class="edge">
<title>DoarMaterialComponent&#45;&gt;AppModule</title>
<path fill="none" stroke="black" d="M1913,-122.12C1913,-136.78 1913,-155 1913,-155 1913,-155 1742.76,-155 1742.76,-155"/>
<polygon fill="black" stroke="black" points="1742.76,-151.5 1732.76,-155 1742.76,-158.5 1742.76,-151.5"/>
</g>
<!-- EntrarComponent -->
<g id="node9" class="node">
<title>EntrarComponent</title>
<polygon fill="#ffffb3" stroke="black" points="1816.31,-122 1699.69,-122 1699.69,-86 1816.31,-86 1816.31,-122"/>
<text text-anchor="middle" x="1758" y="-99.8" font-family="Times,serif" font-size="14.00">EntrarComponent</text>
</g>
<!-- EntrarComponent&#45;&gt;AppModule -->
<g id="edge9" class="edge">
<title>EntrarComponent&#45;&gt;AppModule</title>
<path fill="none" stroke="black" d="M1716.34,-122.11C1716.34,-122.11 1716.34,-140.99 1716.34,-140.99"/>
<polygon fill="black" stroke="black" points="1712.84,-140.99 1716.34,-150.99 1719.84,-140.99 1712.84,-140.99"/>
</g>
<!-- InicioComponent -->
<g id="node10" class="node">
<title>InicioComponent</title>
<polygon fill="#ffffb3" stroke="black" points="1681.99,-122 1568.01,-122 1568.01,-86 1681.99,-86 1681.99,-122"/>
<text text-anchor="middle" x="1625" y="-99.8" font-family="Times,serif" font-size="14.00">InicioComponent</text>
</g>
<!-- InicioComponent&#45;&gt;AppModule -->
<g id="edge10" class="edge">
<title>InicioComponent&#45;&gt;AppModule</title>
<path fill="none" stroke="black" d="M1665.58,-122.11C1665.58,-122.11 1665.58,-140.99 1665.58,-140.99"/>
<polygon fill="black" stroke="black" points="1662.08,-140.99 1665.58,-150.99 1669.08,-140.99 1662.08,-140.99"/>
</g>
<!-- MenuComponent -->
<g id="node11" class="node">
<title>MenuComponent</title>
<polygon fill="#ffffb3" stroke="black" points="1549.99,-122 1436.01,-122 1436.01,-86 1549.99,-86 1549.99,-122"/>
<text text-anchor="middle" x="1493" y="-99.8" font-family="Times,serif" font-size="14.00">MenuComponent</text>
</g>
<!-- MenuComponent&#45;&gt;AppModule -->
<g id="edge11" class="edge">
<title>MenuComponent&#45;&gt;AppModule</title>
<path fill="none" stroke="black" d="M1493,-122.12C1493,-136.78 1493,-155 1493,-155 1493,-155 1639.01,-155 1639.01,-155"/>
<polygon fill="black" stroke="black" points="1639.01,-158.5 1649.01,-155 1639.01,-151.5 1639.01,-158.5"/>
</g>
<!-- ProdutoDeleteComponent -->
<g id="node12" class="node">
<title>ProdutoDeleteComponent</title>
<polygon fill="#ffffb3" stroke="black" points="1418.2,-122 1255.8,-122 1255.8,-86 1418.2,-86 1418.2,-122"/>
<text text-anchor="middle" x="1337" y="-99.8" font-family="Times,serif" font-size="14.00">ProdutoDeleteComponent</text>
</g>
<!-- ProdutoDeleteComponent&#45;&gt;AppModule -->
<g id="edge12" class="edge">
<title>ProdutoDeleteComponent&#45;&gt;AppModule</title>
<path fill="none" stroke="black" d="M1337,-122.01C1337,-138.05 1337,-159 1337,-159 1337,-159 1639,-159 1639,-159"/>
<polygon fill="black" stroke="black" points="1639,-162.5 1649,-159 1639,-155.5 1639,-162.5"/>
</g>
<!-- ProdutoEditComponent -->
<g id="node13" class="node">
<title>ProdutoEditComponent</title>
<polygon fill="#ffffb3" stroke="black" points="1237.5,-122 1088.5,-122 1088.5,-86 1237.5,-86 1237.5,-122"/>
<text text-anchor="middle" x="1163" y="-99.8" font-family="Times,serif" font-size="14.00">ProdutoEditComponent</text>
</g>
<!-- ProdutoEditComponent&#45;&gt;AppModule -->
<g id="edge13" class="edge">
<title>ProdutoEditComponent&#45;&gt;AppModule</title>
<path fill="none" stroke="black" d="M1163,-122.03C1163,-139.06 1163,-162 1163,-162 1163,-162 1639.13,-162 1639.13,-162"/>
<polygon fill="black" stroke="black" points="1639.13,-165.5 1649.13,-162 1639.13,-158.5 1639.13,-165.5"/>
</g>
<!-- ProdutosComponent -->
<g id="node14" class="node">
<title>ProdutosComponent</title>
<polygon fill="#ffffb3" stroke="black" points="1070.61,-122 939.39,-122 939.39,-86 1070.61,-86 1070.61,-122"/>
<text text-anchor="middle" x="1005" y="-99.8" font-family="Times,serif" font-size="14.00">ProdutosComponent</text>
</g>
<!-- ProdutosComponent&#45;&gt;AppModule -->
<g id="edge14" class="edge">
<title>ProdutosComponent&#45;&gt;AppModule</title>
<path fill="none" stroke="black" d="M1005,-122.27C1005,-140.56 1005,-166 1005,-166 1005,-166 1639.12,-166 1639.12,-166"/>
<polygon fill="black" stroke="black" points="1639.12,-169.5 1649.12,-166 1639.12,-162.5 1639.12,-169.5"/>
</g>
<!-- ProdutosDaCategoriaComponent -->
<g id="node15" class="node">
<title>ProdutosDaCategoriaComponent</title>
<polygon fill="#ffffb3" stroke="black" points="921.85,-122 720.15,-122 720.15,-86 921.85,-86 921.85,-122"/>
<text text-anchor="middle" x="821" y="-99.8" font-family="Times,serif" font-size="14.00">ProdutosDaCategoriaComponent</text>
</g>
<!-- ProdutosDaCategoriaComponent&#45;&gt;AppModule -->
<g id="edge15" class="edge">
<title>ProdutosDaCategoriaComponent&#45;&gt;AppModule</title>
<path fill="none" stroke="black" d="M821,-122.11C821,-141.34 821,-169 821,-169 821,-169 1639.33,-169 1639.33,-169"/>
<polygon fill="black" stroke="black" points="1639.33,-172.5 1649.33,-169 1639.33,-165.5 1639.33,-172.5"/>
</g>
<!-- ProdutosPesquisaComponent -->
<g id="node16" class="node">
<title>ProdutosPesquisaComponent</title>
<polygon fill="#ffffb3" stroke="black" points="702.1,-122 521.9,-122 521.9,-86 702.1,-86 702.1,-122"/>
<text text-anchor="middle" x="612" y="-99.8" font-family="Times,serif" font-size="14.00">ProdutosPesquisaComponent</text>
</g>
<!-- ProdutosPesquisaComponent&#45;&gt;AppModule -->
<g id="edge16" class="edge">
<title>ProdutosPesquisaComponent&#45;&gt;AppModule</title>
<path fill="none" stroke="black" d="M612,-122.13C612,-142.57 612,-173 612,-173 612,-173 1639.03,-173 1639.03,-173"/>
<polygon fill="black" stroke="black" points="1639.03,-176.5 1649.03,-173 1639.03,-169.5 1639.03,-176.5"/>
</g>
<!-- RodapeComponent -->
<g id="node17" class="node">
<title>RodapeComponent</title>
<polygon fill="#ffffb3" stroke="black" points="504.1,-122 379.9,-122 379.9,-86 504.1,-86 504.1,-122"/>
<text text-anchor="middle" x="442" y="-99.8" font-family="Times,serif" font-size="14.00">RodapeComponent</text>
</g>
<!-- RodapeComponent&#45;&gt;AppModule -->
<g id="edge17" class="edge">
<title>RodapeComponent&#45;&gt;AppModule</title>
<path fill="none" stroke="black" d="M442,-122.04C442,-143.66 442,-177 442,-177 442,-177 1639.09,-177 1639.09,-177"/>
<polygon fill="black" stroke="black" points="1639.09,-180.5 1649.09,-177 1639.09,-173.5 1639.09,-180.5"/>
</g>
<!-- SobreNosComponent -->
<g id="node18" class="node">
<title>SobreNosComponent</title>
<polygon fill="#ffffb3" stroke="black" points="362.04,-122 225.96,-122 225.96,-86 362.04,-86 362.04,-122"/>
<text text-anchor="middle" x="294" y="-99.8" font-family="Times,serif" font-size="14.00">SobreNosComponent</text>
</g>
<!-- SobreNosComponent&#45;&gt;AppModule -->
<g id="edge18" class="edge">
<title>SobreNosComponent&#45;&gt;AppModule</title>
<path fill="none" stroke="black" d="M294,-122.01C294,-144.49 294,-180 294,-180 294,-180 1639.19,-180 1639.19,-180"/>
<polygon fill="black" stroke="black" points="1639.19,-183.5 1649.19,-180 1639.19,-176.5 1639.19,-183.5"/>
</g>
<!-- VisualizarProdutoComponent -->
<g id="node19" class="node">
<title>VisualizarProdutoComponent</title>
<polygon fill="#ffffb3" stroke="black" points="207.69,-122 24.31,-122 24.31,-86 207.69,-86 207.69,-122"/>
<text text-anchor="middle" x="116" y="-99.8" font-family="Times,serif" font-size="14.00">VisualizarProdutoComponent</text>
</g>
<!-- VisualizarProdutoComponent&#45;&gt;AppModule -->
<g id="edge19" class="edge">
<title>VisualizarProdutoComponent&#45;&gt;AppModule</title>
<path fill="none" stroke="black" d="M116,-122.15C116,-145.76 116,-184 116,-184 116,-184 1639.28,-184 1639.28,-184"/>
<polygon fill="black" stroke="black" points="1639.28,-187.5 1649.28,-184 1639.28,-180.5 1639.28,-187.5"/>
</g>
<!-- AppComponent  -->
<g id="node22" class="node">
<title>AppComponent </title>
<polygon fill="#80b1d3" stroke="black" points="1745.44,-252 1636.56,-252 1636.56,-216 1745.44,-216 1745.44,-252"/>
<text text-anchor="middle" x="1691" y="-229.8" font-family="Times,serif" font-size="14.00">AppComponent </text>
</g>
<!-- AppModule&#45;&gt;AppComponent  -->
<g id="edge21" class="edge">
<title>AppModule&#45;&gt;AppComponent </title>
<path fill="none" stroke="black" stroke-dasharray="1,5" d="M1691,-187.11C1691,-187.11 1691,-205.99 1691,-205.99"/>
<polygon fill="black" stroke="black" points="1687.5,-205.99 1691,-215.99 1694.5,-205.99 1687.5,-205.99"/>
</g>
<!-- AppRoutingModule -->
<g id="node21" class="node">
<title>AppRoutingModule</title>
<polygon fill="#8dd3c7" stroke="black" points="3230.27,-122 3227.27,-126 3206.27,-126 3203.27,-122 3101.73,-122 3101.73,-86 3230.27,-86 3230.27,-122"/>
<text text-anchor="middle" x="3166" y="-99.8" font-family="Times,serif" font-size="14.00">AppRoutingModule</text>
</g>
<!-- AppRoutingModule&#45;&gt;AppModule -->
<g id="edge20" class="edge">
<title>AppRoutingModule&#45;&gt;AppModule</title>
<path fill="none" stroke="black" d="M3166,-122.15C3166,-145.76 3166,-184 3166,-184 3166,-184 1742.77,-184 1742.77,-184"/>
<polygon fill="black" stroke="black" points="1742.77,-180.5 1732.77,-184 1742.77,-187.5 1742.77,-180.5"/>
</g>
</g>
</svg>
